<svg xmlns="http://www.w3.org/2000/svg" xmlns:xlink="http://www.w3.org/1999/xlink" width="0" height="0" style="position:absolute">
	
		<symbol id="icon-bar_chart" viewBox="0 0 36 35">
			<path d="M20.991 0h-7.197v34.988H0V10.513h7.582v24.475h20.414L27.953 20h7.067v14.988H20.991z" fill-rule="evenodd"></path>
		</symbol>
	
		<symbol id="icon-check" viewBox="0 0 11 12">
			<title>Path 4 Copy 2</title><path d="M.051 6.316l1.898-.632L3.284 9.69 9.156.463l1.688 1.074-5.872 9.227a2 2 0 0 1-3.585-.44L.05 6.315z" fill="#333" fill-rule="nonzero"></path>
		</symbol>
	
		<symbol id="icon-home" viewBox="0 0 15 14">
			<path d="M7.5 2.194l3.75 3.67v6.371h-1.5V7.341h-4.5v4.894h-1.5v-6.37l3.75-3.67zM7.5 0L0 7.341h2.25v6.526h4.5V8.973h1.5v4.894h4.5V7.34H15L7.5 0z"></path>
		</symbol>
	
		<symbol id="icon-info" viewBox="0 0 13 13">
			<path d="M5.85 3.25h1.3v1.3h-1.3zm0 2.6h1.3v3.9h-1.3z"></path><path d="M6.5 0A6.502 6.502 0 0 0 0 6.5C0 10.088 2.912 13 6.5 13S13 10.088 13 6.5 10.088 0 6.5 0zm0 11.7a5.207 5.207 0 0 1-5.2-5.2c0-2.866 2.333-5.2 5.2-5.2s5.2 2.333 5.2 5.2-2.333 5.2-5.2 5.2z"></path>
		</symbol>
	
		<symbol id="icon-info-circle" viewBox="0 0 512 512">
			<path d="M256 8C119.043 8 8 119.083 8 256c0 136.997 111.043 248 248 248s248-111.003 248-248C504 119.083 392.957 8 256 8zm0 110c23.196 0 42 18.804 42 42s-18.804 42-42 42-42-18.804-42-42 18.804-42 42-42zm56 254c0 6.627-5.373 12-12 12h-88c-6.627 0-12-5.373-12-12v-24c0-6.627 5.373-12 12-12h12v-64h-12c-6.627 0-12-5.373-12-12v-24c0-6.627 5.373-12 12-12h64c6.627 0 12 5.373 12 12v100h12c6.627 0 12 5.373 12 12v24z"></path>
		</symbol>
	
		<symbol id="icon-move_to_inbox" viewBox="0 0 35 35">
			<path d="M31.111 0H3.87C1.711 0 .02 1.75.02 3.889L0 31.11A3.871 3.871 0 0 0 3.87 35h27.24A3.9 3.9 0 0 0 35 31.111V3.89A3.9 3.9 0 0 0 31.111 0zm0 23.333h-7.778a5.838 5.838 0 0 1-5.833 5.834 5.838 5.838 0 0 1-5.833-5.834H3.869V3.89h27.242v19.444zm-5.833-9.722h-3.89V7.778h-7.777v5.833H9.722L17.5 21.39l7.778-7.778z"></path>
		</symbol>
	
		<symbol id="icon-person" viewBox="0 0 14 14">
			<path d="M7 0C3.136 0 0 3.136 0 7s3.136 7 7 7 7-3.136 7-7-3.136-7-7-7zM3.549 11.396C3.85 10.766 5.684 10.15 7 10.15c1.316 0 3.157.616 3.451 1.246A5.525 5.525 0 0 1 7 12.6a5.525 5.525 0 0 1-3.451-1.204zm7.903-1.015C10.451 9.163 8.022 8.75 7 8.75c-1.022 0-3.451.413-4.452 1.631A5.565 5.565 0 0 1 1.4 7c0-3.087 2.513-5.6 5.6-5.6 3.087 0 5.6 2.513 5.6 5.6a5.565 5.565 0 0 1-1.148 3.381z"></path><path d="M7 2.8a2.444 2.444 0 0 0-2.45 2.45A2.444 2.444 0 0 0 7 7.7a2.444 2.444 0 0 0 2.45-2.45A2.444 2.444 0 0 0 7 2.8zm0 3.5c-.581 0-1.05-.469-1.05-1.05 0-.581.469-1.05 1.05-1.05.581 0 1.05.469 1.05 1.05 0 .581-.469 1.05-1.05 1.05z"></path>
		</symbol>
	
		<symbol id="icon-power_settings_new" viewBox="0 0 13 13">
			<path d="M7.222 0H5.778v7.222h1.444V0zm3.489 1.567L9.685 2.593a4.998 4.998 0 0 1 1.87 3.907A5.052 5.052 0 0 1 6.5 11.556a5.052 5.052 0 0 1-3.192-8.97L2.289 1.567A6.451 6.451 0 0 0 0 6.5a6.5 6.5 0 0 0 13 0 6.451 6.451 0 0 0-2.29-4.933z"></path>
		</symbol>
	
		<symbol id="icon-question_answer" viewBox="0 0 13 13">
			<path d="M8.45 1.3v4.55H2.06l-.383.384-.377.377V1.3h7.15zM9.1 0H.65A.652.652 0 0 0 0 .65v9.1l2.6-2.6h6.5c.357 0 .65-.293.65-.65V.65A.652.652 0 0 0 9.1 0zm3.25 2.6h-1.3v5.85H2.6v1.3c0 .357.292.65.65.65h7.15L13 13V3.25a.652.652 0 0 0-.65-.65z"></path>
		</symbol>
	
		<symbol id="icon-save_alt" viewBox="0 0 13 13">
			<path d="M11.556 6.5v5.056H1.444V6.5H0v5.056C0 12.35.65 13 1.444 13h10.112C12.35 13 13 12.35 13 11.556V6.5h-1.444zm-4.334.484l1.87-1.863 1.02 1.018L6.5 9.75 2.889 6.139 3.907 5.12l1.87 1.863V0h1.445v6.984z"></path>
		</symbol>
	
</svg>
