<svg width="203" height="15" xmlns="http://www.w3.org/2000/svg"><g id="Wireframe/invision" fill="none" fill-rule="evenodd"><g id="logo"><path d="M.66.38h6.172c3.027 0 5.078 1.974 5.078 5 0 2.999-2.158 4.962-5.293 4.962H4.244v4.13H.66V.382zm3.584 2.755v4.502h1.621c1.524 0 2.422-.782 2.422-2.246 0-1.485-.889-2.256-2.402-2.256h-1.64zm14.117-.05v3.927h2.12c1.318 0 2.099-.733 2.099-1.953 0-1.202-.83-1.973-2.11-1.973h-2.109zm0 6.456v4.932h-3.584V.38h6.201c3.291 0 5.264 1.738 5.264 4.648 0 1.729-.86 3.31-2.402 3.985l2.812 5.459H22.63L20.217 9.54H18.36zm14.556 4.932h-3.583V.38h3.583v14.092zm11.686 0h-4.531L35.53.38h4.11l2.706 10.371h.185L45.16.381h3.868l-4.424 14.092zm14.761 0l-.879-3.096h-4.6l-.907 3.096h-3.555L54.149.38h4.385l4.737 14.092h-3.907zM56.112 3.555L54.57 8.799h3.243l-1.514-5.244h-.186zm15.309 11.299c-4.219 0-6.817-2.833-6.817-7.432 0-4.6 2.588-7.422 6.817-7.422 3.545 0 6.23 2.363 6.338 5.557H74.31c-.185-1.534-1.347-2.569-2.89-2.569-1.963 0-3.164 1.68-3.164 4.424 0 2.754 1.2 4.453 3.173 4.453 1.543 0 2.696-.996 2.9-2.51h3.438c-.117 3.223-2.734 5.499-6.347 5.499zm16.226-.381h-3.574V9.629L79.21.38h3.818l2.744 5.752h.186L88.682.38h3.819l-4.854 9.248v4.844z" id="PRIVACY-REGISTER" fill="#009EE0"/><path d="M103.584 3.086v3.926h2.12c1.317 0 2.099-.733 2.099-1.953 0-1.202-.83-1.973-2.11-1.973h-2.109zm0 6.455v4.932H100V.38h6.201c3.291 0 5.264 1.738 5.264 4.648 0 1.729-.86 3.31-2.403 3.985l2.813 5.459h-4.023l-2.413-4.932h-1.855zm20.63 2.05v2.882h-9.658V.38h9.659v2.88h-6.075v2.813h5.713V8.71h-5.713v2.88h6.075zm15.973-2.987c0 3.876-2.412 6.25-6.396 6.25-4.336 0-6.944-2.803-6.944-7.442 0-4.58 2.617-7.412 6.846-7.412 3.437 0 5.996 2.002 6.348 4.98h-3.536c-.351-1.24-1.406-1.992-2.812-1.992-2.002 0-3.193 1.64-3.193 4.385 0 2.793 1.318 4.492 3.369 4.492 1.63 0 2.763-.957 2.851-2.383l.01-.234h-2.578v-2.46h6.035v1.816zm6.5 5.869h-3.584V.38h3.584v14.092zm2.945-4.014h3.418c.088 1.025 1.113 1.68 2.597 1.68 1.338 0 2.256-.645 2.256-1.573 0-.78-.615-1.2-2.226-1.523l-1.856-.371c-2.578-.488-3.906-1.895-3.906-4.111 0-2.754 2.207-4.561 5.606-4.561 3.3 0 5.585 1.787 5.644 4.395h-3.31c-.079-.997-1.026-1.69-2.286-1.69s-2.09.596-2.09 1.533c0 .772.626 1.221 2.11 1.514l1.816.352c2.784.537 4.034 1.796 4.034 4.033 0 2.94-2.247 4.717-5.938 4.717-3.564 0-5.81-1.68-5.87-4.395zm21.617 4.014h-3.574V3.262h-4.063V.38h11.71v2.88h-4.073v11.212zm16.52-2.881v2.88h-9.66V.382h9.66v2.88h-6.075v2.813h5.713v2.637h-5.713v2.88h6.074zm6.88-8.506v3.926h2.119c1.318 0 2.1-.733 2.1-1.953 0-1.202-.83-1.973-2.11-1.973h-2.11zm0 6.455v4.932h-3.584V.38h6.2c3.292 0 5.265 1.738 5.265 4.648 0 1.729-.86 3.31-2.403 3.985l2.813 5.459h-4.024l-2.412-4.932h-1.855z" id="PRIVACY-REGISTER" fill="#000"/></g></g></svg>