<svg width="14" height="14" viewBox="0 0 14 14" version="1.1" xmlns="http://www.w3.org/2000/svg"><g fill-rule="nonzero" stroke="none" stroke-width="1"><path d="M7 0C3.136 0 0 3.136 0 7s3.136 7 7 7 7-3.136 7-7-3.136-7-7-7zM3.549 11.396C3.85 10.766 5.684 10.15 7 10.15c1.316 0 3.157.616 3.451 1.246A5.525 5.525 0 0 1 7 12.6a5.525 5.525 0 0 1-3.451-1.204zm7.903-1.015C10.451 9.163 8.022 8.75 7 8.75c-1.022 0-3.451.413-4.452 1.631A5.565 5.565 0 0 1 1.4 7c0-3.087 2.513-5.6 5.6-5.6 3.087 0 5.6 2.513 5.6 5.6a5.565 5.565 0 0 1-1.148 3.381z"/><path d="M7 2.8a2.444 2.444 0 0 0-2.45 2.45A2.444 2.444 0 0 0 7 7.7a2.444 2.444 0 0 0 2.45-2.45A2.444 2.444 0 0 0 7 2.8zm0 3.5c-.581 0-1.05-.469-1.05-1.05 0-.581.469-1.05 1.05-1.05.581 0 1.05.469 1.05 1.05 0 .581-.469 1.05-1.05 1.05z"/></g></svg>
