<?xml version="1.0" encoding="UTF-8"?>
<svg width="203px" height="15px" viewBox="0 0 203 15" version="1.1" xmlns="http://www.w3.org/2000/svg" xmlns:xlink="http://www.w3.org/1999/xlink">
    <!-- Generator: Sketch 51.1 (57501) - http://www.bohemiancoding.com/sketch -->
    <title>logo</title>
    <desc>Created with Sketch.</desc>
    <defs></defs>
    <g id="Wireframe/invision" stroke="none" stroke-width="1" fill="none" fill-rule="evenodd">
        <g id="logo">
            <path d="M0.66015625,0.380859375 L6.83203125,0.380859375 C9.859375,0.380859375 11.9101562,2.35351562 11.9101562,5.38085938 C11.9101562,8.37890625 9.75195312,10.3417969 6.6171875,10.3417969 L4.24414062,10.3417969 L4.24414062,14.4726562 L0.66015625,14.4726562 L0.66015625,0.380859375 Z M4.24414062,3.13476562 L4.24414062,7.63671875 L5.86523438,7.63671875 C7.38867188,7.63671875 8.28710938,6.85546875 8.28710938,5.390625 C8.28710938,3.90625 7.3984375,3.13476562 5.88476562,3.13476562 L4.24414062,3.13476562 Z M18.3610937,3.0859375 L18.3610937,7.01171875 L20.4802344,7.01171875 C21.7985937,7.01171875 22.5798437,6.27929688 22.5798437,5.05859375 C22.5798437,3.85742188 21.7497656,3.0859375 20.4704687,3.0859375 L18.3610937,3.0859375 Z M18.3610938,9.54101562 L18.3610938,14.4726562 L14.7771094,14.4726562 L14.7771094,0.380859375 L20.9782813,0.380859375 C24.2692969,0.380859375 26.2419531,2.11914062 26.2419531,5.02929688 C26.2419531,6.7578125 25.3825781,8.33984375 23.8396094,9.01367188 L26.6521094,14.4726562 L22.6286719,14.4726562 L20.2165625,9.54101562 L18.3610938,9.54101562 Z M32.9175,14.4726562 L29.3335156,14.4726562 L29.3335156,0.380859375 L32.9175,0.380859375 L32.9175,14.4726562 Z M44.6028125,14.4726562 L40.0715625,14.4726562 L35.5305469,0.380859375 L39.641875,0.380859375 L42.3469531,10.7519531 L42.5325,10.7519531 L45.1594531,0.380859375 L49.0266406,0.380859375 L44.6028125,14.4726562 Z M59.3642969,14.4726562 L58.4853906,11.3769531 L53.8857813,11.3769531 L52.9775781,14.4726562 L49.4228906,14.4726562 L54.1494531,0.380859375 L58.5342188,0.380859375 L63.2705469,14.4726562 L59.3642969,14.4726562 Z M56.1123438,3.5546875 L54.569375,8.79882812 L57.8115625,8.79882812 L56.2978906,3.5546875 L56.1123438,3.5546875 Z M71.4207031,14.8535156 C67.2019531,14.8535156 64.6042969,12.0214844 64.6042969,7.421875 C64.6042969,2.82226562 67.1921875,0 71.4207031,0 C74.965625,0 77.6511719,2.36328125 77.7585938,5.55664062 L74.3113281,5.55664062 C74.1257813,4.0234375 72.9636719,2.98828125 71.4207031,2.98828125 C69.4578125,2.98828125 68.2566406,4.66796875 68.2566406,7.41210938 C68.2566406,10.1660156 69.4578125,11.8652344 71.4304688,11.8652344 C72.9734375,11.8652344 74.1257813,10.8691406 74.3308594,9.35546875 L77.7683594,9.35546875 C77.6511719,12.578125 75.0339844,14.8535156 71.4207031,14.8535156 Z M87.6470312,14.4726562 L84.0728125,14.4726562 L84.0728125,9.62890625 L79.2095312,0.380859375 L83.0278906,0.380859375 L85.7720312,6.1328125 L85.9575781,6.1328125 L88.6821875,0.380859375 L92.5005469,0.380859375 L87.6470312,9.62890625 L87.6470312,14.4726562 Z" id="PRIVACY-REGISTER" fill="#009EE0"></path>
            <path d="M103.583984,3.0859375 L103.583984,7.01171875 L105.703125,7.01171875 C107.021484,7.01171875 107.802734,6.27929688 107.802734,5.05859375 C107.802734,3.85742188 106.972656,3.0859375 105.693359,3.0859375 L103.583984,3.0859375 Z M103.583984,9.54101562 L103.583984,14.4726562 L100,14.4726562 L100,0.380859375 L106.201172,0.380859375 C109.492188,0.380859375 111.464844,2.11914062 111.464844,5.02929688 C111.464844,6.7578125 110.605469,8.33984375 109.0625,9.01367188 L111.875,14.4726562 L107.851562,14.4726562 L105.439453,9.54101562 L103.583984,9.54101562 Z M124.214609,11.5917969 L124.214609,14.4726562 L114.556406,14.4726562 L114.556406,0.380859375 L124.214609,0.380859375 L124.214609,3.26171875 L118.140391,3.26171875 L118.140391,6.07421875 L123.853281,6.07421875 L123.853281,8.7109375 L118.140391,8.7109375 L118.140391,11.5917969 L124.214609,11.5917969 Z M140.187031,8.60351562 C140.187031,12.4804688 137.774922,14.8535156 133.790547,14.8535156 C129.454609,14.8535156 126.847187,12.0507812 126.847187,7.41210938 C126.847187,2.83203125 129.464375,0 133.692891,0 C137.130391,0 139.688984,2.00195312 140.040547,4.98046875 L136.505391,4.98046875 C136.153828,3.74023438 135.099141,2.98828125 133.692891,2.98828125 C131.690937,2.98828125 130.499531,4.62890625 130.499531,7.37304688 C130.499531,10.1660156 131.817891,11.8652344 133.868672,11.8652344 C135.499531,11.8652344 136.632344,10.9082031 136.720234,9.48242188 L136.73,9.24804688 L134.151875,9.24804688 L134.151875,6.78710938 L140.187031,6.78710938 L140.187031,8.60351562 Z M146.686797,14.4726562 L143.102813,14.4726562 L143.102813,0.380859375 L146.686797,0.380859375 L146.686797,14.4726562 Z M149.631875,10.4589844 L153.049844,10.4589844 C153.137734,11.484375 154.163125,12.1386719 155.6475,12.1386719 C156.985391,12.1386719 157.903359,11.4941406 157.903359,10.5664062 C157.903359,9.78515625 157.288125,9.36523438 155.676797,9.04296875 L153.821328,8.671875 C151.243203,8.18359375 149.915078,6.77734375 149.915078,4.56054688 C149.915078,1.80664062 152.122109,0 155.520547,0 C158.821328,0 161.106484,1.78710938 161.165078,4.39453125 L157.854531,4.39453125 C157.776406,3.3984375 156.829141,2.70507812 155.569375,2.70507812 C154.309609,2.70507812 153.479531,3.30078125 153.479531,4.23828125 C153.479531,5.00976562 154.104531,5.45898438 155.588906,5.75195312 L157.405313,6.10351562 C160.188516,6.640625 161.438516,7.90039062 161.438516,10.1367188 C161.438516,13.0761719 159.192422,14.8535156 155.501016,14.8535156 C151.936563,14.8535156 149.690469,13.1738281 149.631875,10.4589844 Z M171.248828,14.4726562 L167.674609,14.4726562 L167.674609,3.26171875 L163.612109,3.26171875 L163.612109,0.380859375 L175.321094,0.380859375 L175.321094,3.26171875 L171.248828,3.26171875 L171.248828,14.4726562 Z M187.768125,11.5917969 L187.768125,14.4726562 L178.109922,14.4726562 L178.109922,0.380859375 L187.768125,0.380859375 L187.768125,3.26171875 L181.693906,3.26171875 L181.693906,6.07421875 L187.406797,6.07421875 L187.406797,8.7109375 L181.693906,8.7109375 L181.693906,11.5917969 L187.768125,11.5917969 Z M194.64875,3.0859375 L194.64875,7.01171875 L196.767891,7.01171875 C198.08625,7.01171875 198.8675,6.27929688 198.8675,5.05859375 C198.8675,3.85742188 198.037422,3.0859375 196.758125,3.0859375 L194.64875,3.0859375 Z M194.64875,9.54101562 L194.64875,14.4726562 L191.064766,14.4726562 L191.064766,0.380859375 L197.265938,0.380859375 C200.556953,0.380859375 202.529609,2.11914062 202.529609,5.02929688 C202.529609,6.7578125 201.670234,8.33984375 200.127266,9.01367188 L202.939766,14.4726562 L198.916328,14.4726562 L196.504219,9.54101562 L194.64875,9.54101562 Z" id="PRIVACY-REGISTER" fill="#000000"></path>
        </g>
    </g>
</svg>